<svg width="65" height="59" viewBox="0 0 65 59" fill="none" xmlns="http://www.w3.org/2000/svg">
<g clip-path="url(#clip0_112_26600)">
<rect width="64.7645" height="58.2286" transform="translate(0.189941 0.246094)" fill="white" fill-opacity="0.01"/>
<path d="M49.7109 46.1894V42.509H56.1473V38.8259H63.3722V35.1428H56.1473V10.9823H45.4741V0.246094H11.3732V12.6756H19.2982V16.3587H1.3339V20.0418H7.48646V23.7221H16.492V27.4052H0.189941V31.0883H11.3732V58.4747H56.1473V53.5556H42.8609V49.8725H64.9682V46.1894H49.7109Z" fill="url(#paint0_linear_112_26600)"/>
<path opacity="0.6" d="M45.5483 16.6858L56.0782 10.9824H45.5483V16.6858Z" fill="url(#paint1_linear_112_26600)"/>
<path d="M56.1528 10.9736H56.1445L56.1528 10.9819V10.9736Z" fill="#E7E8EC"/>
<path opacity="0.6" d="M45.5483 16.6858L56.0782 10.9824H45.5483V16.6858Z" fill="url(#paint2_linear_112_26600)"/>
<path opacity="0.2" d="M45.5485 10.9823H56.0785H56.1529L56.1446 10.9739L45.4741 0.246094V10.9823H45.5485Z" fill="#EBECF0"/>
<path opacity="0.6" d="M32.5706 41.3779C38.4105 41.3779 43.1446 36.6183 43.1446 30.7471C43.1446 24.8758 38.4105 20.1162 32.5706 20.1162C26.7307 20.1162 21.9966 24.8758 21.9966 30.7471C21.9966 36.6183 26.7307 41.3779 32.5706 41.3779Z" fill="url(#paint3_linear_112_26600)"/>
<path d="M35.052 39.7158C40.8919 39.7158 45.6261 34.9562 45.6261 29.085C45.6261 23.2137 40.8919 18.4541 35.052 18.4541C29.2122 18.4541 24.478 23.2137 24.478 29.085C24.478 34.9562 29.2122 39.7158 35.052 39.7158Z" fill="url(#paint4_linear_112_26600)"/>
<path d="M40.6584 30.0711V28.1312C40.6592 27.9961 40.6075 27.866 40.5143 27.7687C40.4211 27.6714 40.2938 27.6145 40.1595 27.6101H36.5457V23.988C36.5457 23.9195 36.5322 23.8516 36.5059 23.7884C36.4797 23.7251 36.4412 23.6678 36.3928 23.6196C36.3443 23.5714 36.2868 23.5333 36.2237 23.5076C36.1605 23.4819 36.0929 23.469 36.0247 23.4698H34.0951C34.0275 23.469 33.9603 23.4817 33.8975 23.5071C33.8346 23.5324 33.7774 23.57 33.729 23.6176C33.6807 23.6652 33.6421 23.722 33.6155 23.7845C33.5889 23.8471 33.5749 23.9144 33.5742 23.9825V27.6046H29.9824C29.8454 27.6039 29.7138 27.6577 29.6161 27.7543C29.5185 27.8508 29.4629 27.9824 29.4614 28.1201V30.06C29.4607 30.1977 29.5142 30.3301 29.6103 30.4283C29.7064 30.5264 29.8372 30.5823 29.9741 30.5838H33.5769V34.2032C33.5762 34.3409 33.6297 34.4733 33.7258 34.5714C33.8219 34.6696 33.9527 34.7255 34.0896 34.7269H36.0192C36.1557 34.7233 36.2852 34.6657 36.3797 34.5666C36.4741 34.4674 36.5259 34.3349 36.5236 34.1976V30.5755H40.1292C40.1966 30.5781 40.2639 30.5672 40.3271 30.5434C40.3903 30.5197 40.4482 30.4836 40.4974 30.4372C40.5467 30.3908 40.5862 30.335 40.6139 30.2731C40.6415 30.2112 40.6567 30.1444 40.6584 30.0766V30.0711Z" fill="white"/>
</g>
<defs>
<linearGradient id="paint0_linear_112_26600" x1="8.15353" y1="55.2378" x2="54.4093" y2="9.22934" gradientUnits="userSpaceOnUse">
<stop offset="0.1" stop-color="#C1C7D0"/>
<stop offset="1" stop-color="#EBECF0" stop-opacity="0.5"/>
</linearGradient>
<linearGradient id="paint1_linear_112_26600" x1="45.3444" y1="16.4808" x2="56.5432" y2="5.34182" gradientUnits="userSpaceOnUse">
<stop stop-color="#A5ADBA" stop-opacity="0"/>
<stop offset="1" stop-color="#A5ADBA"/>
</linearGradient>
<linearGradient id="paint2_linear_112_26600" x1="45.3444" y1="16.4808" x2="56.5432" y2="5.34182" gradientUnits="userSpaceOnUse">
<stop stop-color="#A5ADBA" stop-opacity="0"/>
<stop offset="0.11" stop-color="#A5ADBA" stop-opacity="0.07"/>
<stop offset="0.32" stop-color="#A5ADBA" stop-opacity="0.24"/>
<stop offset="0.6" stop-color="#A5ADBA" stop-opacity="0.52"/>
<stop offset="0.93" stop-color="#A5ADBA" stop-opacity="0.91"/>
<stop offset="1" stop-color="#A5ADBA"/>
</linearGradient>
<linearGradient id="paint3_linear_112_26600" x1="25.0949" y1="38.2629" x2="40.1292" y2="23.309" gradientUnits="userSpaceOnUse">
<stop stop-color="#C1C7D0" stop-opacity="0.1"/>
<stop offset="0.04" stop-color="#C1C7D0" stop-opacity="0.25"/>
<stop offset="0.09" stop-color="#C1C7D0" stop-opacity="0.43"/>
<stop offset="0.14" stop-color="#C1C7D0" stop-opacity="0.58"/>
<stop offset="0.21" stop-color="#C1C7D0" stop-opacity="0.71"/>
<stop offset="0.28" stop-color="#C1C7D0" stop-opacity="0.82"/>
<stop offset="0.36" stop-color="#C1C7D0" stop-opacity="0.9"/>
<stop offset="0.46" stop-color="#C1C7D0" stop-opacity="0.96"/>
<stop offset="0.6" stop-color="#C1C7D0" stop-opacity="0.99"/>
<stop offset="1" stop-color="#C1C7D0"/>
</linearGradient>
<linearGradient id="paint4_linear_112_26600" x1="35.052" y1="18.4541" x2="35.052" y2="39.7158" gradientUnits="userSpaceOnUse">
<stop stop-color="#332A6C"/>
<stop offset="1" stop-color="#241D52"/>
</linearGradient>
<clipPath id="clip0_112_26600">
<rect width="64.7645" height="58.2286" fill="white" transform="translate(0.189941 0.246094)"/>
</clipPath>
</defs>
</svg>
